<mxfile host="app.diagrams.net" modified="2021-11-19T01:10:16.532Z" agent="5.0 (Windows NT 10.0; Win64; x64) AppleWebKit/537.36 (KHTML, like Gecko) Chrome/95.0.4638.69 Safari/537.36" etag="BSzBLdM2GaLX1IRagYJK" version="15.8.2" type="github">
  <diagram id="tkJnGF91Tr6Hp5H_-BvY" name="Page-1">
    <mxGraphModel dx="817" dy="468" grid="1" gridSize="10" guides="1" tooltips="1" connect="1" arrows="1" fold="1" page="1" pageScale="1" pageWidth="850" pageHeight="1100" math="0" shadow="0">
      <root>
        <mxCell id="0" />
        <mxCell id="1" parent="0" />
        <mxCell id="R-MjW9YE-7VI5NUZe0La-1" value="E-Wisedom" style="ellipse;whiteSpace=wrap;html=1;aspect=fixed;fillColor=#6a00ff;strokeColor=#3700CC;fontColor=#ffffff;" parent="1" vertex="1">
          <mxGeometry x="425" y="240" width="140" height="140" as="geometry" />
        </mxCell>
        <mxCell id="R-MjW9YE-7VI5NUZe0La-2" value="MED" style="rounded=0;whiteSpace=wrap;html=1;fillColor=#e1d5e7;strokeColor=#9673a6;" parent="1" vertex="1">
          <mxGeometry x="50" y="290" width="120" height="60" as="geometry" />
        </mxCell>
        <mxCell id="R-MjW9YE-7VI5NUZe0La-17" value="" style="endArrow=classic;html=1;rounded=0;exitX=1;exitY=0.5;exitDx=0;exitDy=0;entryX=-0.021;entryY=0.571;entryDx=0;entryDy=0;entryPerimeter=0;" parent="1" source="R-MjW9YE-7VI5NUZe0La-2" target="R-MjW9YE-7VI5NUZe0La-1" edge="1">
          <mxGeometry width="50" height="50" relative="1" as="geometry">
            <mxPoint x="200" y="330" as="sourcePoint" />
            <mxPoint x="300" y="310" as="targetPoint" />
          </mxGeometry>
        </mxCell>
        <mxCell id="R-MjW9YE-7VI5NUZe0La-18" value="通过sftp传递员工数据、省份数据、&lt;br&gt;城市区县数据、医院数据、科室、职称、&lt;br&gt;部门等数据，每天0点拉取一次&lt;br&gt;&lt;br&gt;" style="text;html=1;align=center;verticalAlign=middle;resizable=0;points=[];autosize=1;strokeColor=none;fillColor=none;" parent="1" vertex="1">
          <mxGeometry x="180" y="270" width="230" height="60" as="geometry" />
        </mxCell>
        <mxCell id="R-MjW9YE-7VI5NUZe0La-19" value="FACE" style="rounded=0;whiteSpace=wrap;html=1;fillColor=#fff2cc;strokeColor=#d6b656;" parent="1" vertex="1">
          <mxGeometry x="50" y="120" width="120" height="60" as="geometry" />
        </mxCell>
        <mxCell id="R-MjW9YE-7VI5NUZe0La-23" value="" style="endArrow=none;html=1;rounded=0;" parent="1" edge="1">
          <mxGeometry width="50" height="50" relative="1" as="geometry">
            <mxPoint x="170" y="160" as="sourcePoint" />
            <mxPoint x="490" y="160.5" as="targetPoint" />
          </mxGeometry>
        </mxCell>
        <mxCell id="R-MjW9YE-7VI5NUZe0La-24" value="" style="endArrow=classic;html=1;rounded=0;entryX=0.457;entryY=0.014;entryDx=0;entryDy=0;entryPerimeter=0;" parent="1" target="R-MjW9YE-7VI5NUZe0La-1" edge="1">
          <mxGeometry width="50" height="50" relative="1" as="geometry">
            <mxPoint x="489" y="160" as="sourcePoint" />
            <mxPoint x="490" y="160" as="targetPoint" />
            <Array as="points" />
          </mxGeometry>
        </mxCell>
        <mxCell id="R-MjW9YE-7VI5NUZe0La-34" value="通过sftp拉取FACE系统的会议文件，&lt;br&gt;并解析文件保存到数据库，每5分钟一次" style="text;html=1;align=center;verticalAlign=middle;resizable=0;points=[];autosize=1;strokeColor=none;fillColor=none;" parent="1" vertex="1">
          <mxGeometry x="210" y="160" width="230" height="30" as="geometry" />
        </mxCell>
        <mxCell id="R-MjW9YE-7VI5NUZe0La-35" value="ANAS" style="rounded=0;whiteSpace=wrap;html=1;fillColor=#ffe6cc;strokeColor=#d79b00;" parent="1" vertex="1">
          <mxGeometry x="50" y="440" width="120" height="60" as="geometry" />
        </mxCell>
        <mxCell id="R-MjW9YE-7VI5NUZe0La-41" value="" style="endArrow=classic;html=1;rounded=0;exitX=0.664;exitY=1;exitDx=0;exitDy=0;exitPerimeter=0;entryX=1;entryY=0.75;entryDx=0;entryDy=0;" parent="1" source="R-MjW9YE-7VI5NUZe0La-1" target="R-MjW9YE-7VI5NUZe0La-35" edge="1">
          <mxGeometry width="50" height="50" relative="1" as="geometry">
            <mxPoint x="520" y="390" as="sourcePoint" />
            <mxPoint x="190" y="490" as="targetPoint" />
            <Array as="points">
              <mxPoint x="520" y="480" />
            </Array>
          </mxGeometry>
        </mxCell>
        <mxCell id="R-MjW9YE-7VI5NUZe0La-42" value="" style="endArrow=classic;html=1;rounded=0;exitX=1;exitY=0.25;exitDx=0;exitDy=0;entryX=0.393;entryY=1;entryDx=0;entryDy=0;entryPerimeter=0;" parent="1" source="R-MjW9YE-7VI5NUZe0La-35" target="R-MjW9YE-7VI5NUZe0La-1" edge="1">
          <mxGeometry width="50" height="50" relative="1" as="geometry">
            <mxPoint x="190" y="480" as="sourcePoint" />
            <mxPoint x="480" y="390" as="targetPoint" />
            <Array as="points">
              <mxPoint x="480" y="450" />
            </Array>
          </mxGeometry>
        </mxCell>
        <mxCell id="R-MjW9YE-7VI5NUZe0La-43" value="" style="endArrow=classic;html=1;rounded=0;entryX=1.017;entryY=0.117;entryDx=0;entryDy=0;entryPerimeter=0;" parent="1" target="R-MjW9YE-7VI5NUZe0La-19" edge="1">
          <mxGeometry width="50" height="50" relative="1" as="geometry">
            <mxPoint x="520" y="240" as="sourcePoint" />
            <mxPoint x="370" y="80" as="targetPoint" />
            <Array as="points">
              <mxPoint x="520" y="127" />
            </Array>
          </mxGeometry>
        </mxCell>
        <mxCell id="R-MjW9YE-7VI5NUZe0La-44" value="通过sftp拉取NANAS上面的会议文件、&lt;br&gt;旅行社人员，并解析保存到系统。&lt;br&gt;每10分钟拉取一次" style="text;html=1;align=center;verticalAlign=middle;resizable=0;points=[];autosize=1;strokeColor=none;fillColor=none;" parent="1" vertex="1">
          <mxGeometry x="205" y="400" width="220" height="50" as="geometry" />
        </mxCell>
        <mxCell id="R-MjW9YE-7VI5NUZe0La-45" value="通过sftp将签到记录传递给FACE，&lt;br&gt;每天1点、14点、20点执行" style="text;html=1;align=center;verticalAlign=middle;resizable=0;points=[];autosize=1;strokeColor=none;fillColor=none;" parent="1" vertex="1">
          <mxGeometry x="200" y="95" width="200" height="30" as="geometry" />
        </mxCell>
        <mxCell id="R-MjW9YE-7VI5NUZe0La-46" value="通过sftp, 将签到记录传给ANAS,每天0点推送前一天的记录" style="text;html=1;align=center;verticalAlign=middle;resizable=0;points=[];autosize=1;strokeColor=none;fillColor=none;" parent="1" vertex="1">
          <mxGeometry x="190" y="490" width="320" height="20" as="geometry" />
        </mxCell>
        <mxCell id="R-MjW9YE-7VI5NUZe0La-47" value="ODS" style="shape=cylinder3;whiteSpace=wrap;html=1;boundedLbl=1;backgroundOutline=1;size=15;fillColor=#b1ddf0;strokeColor=#10739e;" parent="1" vertex="1">
          <mxGeometry x="790" y="100" width="60" height="80" as="geometry" />
        </mxCell>
        <mxCell id="R-MjW9YE-7VI5NUZe0La-48" value="" style="endArrow=classic;html=1;rounded=0;entryX=0;entryY=0.625;entryDx=0;entryDy=0;entryPerimeter=0;" parent="1" source="R-MjW9YE-7VI5NUZe0La-1" target="R-MjW9YE-7VI5NUZe0La-47" edge="1">
          <mxGeometry width="50" height="50" relative="1" as="geometry">
            <mxPoint x="400" y="280" as="sourcePoint" />
            <mxPoint x="750" y="150" as="targetPoint" />
            <Array as="points">
              <mxPoint x="610" y="310" />
              <mxPoint x="610" y="150" />
            </Array>
          </mxGeometry>
        </mxCell>
        <mxCell id="R-MjW9YE-7VI5NUZe0La-49" value="通过sftp将已绑定医生的员&lt;br&gt;工数据、调查问卷信息、&lt;br&gt;CTA记录表、SSOCTA记录表&lt;br&gt;用户关注及取关历史记录表、&lt;br&gt;菜单点击记录表、&lt;br&gt;项目二维码扫描记录表、&lt;br&gt;会议签到人员数据、&lt;br&gt;辉瑞通行证登陆记录等&lt;br&gt;数据传递给ODS。每天0点推送" style="text;html=1;align=center;verticalAlign=middle;resizable=0;points=[];autosize=1;strokeColor=none;fillColor=none;" parent="1" vertex="1">
          <mxGeometry x="600" y="20" width="180" height="130" as="geometry" />
        </mxCell>
        <mxCell id="R-MjW9YE-7VI5NUZe0La-59" value="供应商调研接口&lt;br&gt;POST请求" style="rounded=1;whiteSpace=wrap;html=1;" parent="1" vertex="1">
          <mxGeometry x="710" y="360" width="120" height="60" as="geometry" />
        </mxCell>
        <mxCell id="R-MjW9YE-7VI5NUZe0La-61" value="HCP Calendar 直播会议接口&lt;br&gt;POST请求" style="rounded=1;whiteSpace=wrap;html=1;" parent="1" vertex="1">
          <mxGeometry x="710" y="470" width="120" height="60" as="geometry" />
        </mxCell>
        <mxCell id="R-MjW9YE-7VI5NUZe0La-62" value="身份信息回调更新接口&lt;br&gt;POST请求" style="rounded=1;whiteSpace=wrap;html=1;" parent="1" vertex="1">
          <mxGeometry x="710" y="580" width="120" height="60" as="geometry" />
        </mxCell>
        <mxCell id="R-MjW9YE-7VI5NUZe0La-64" value="虚拟会议身份信息接口&lt;br&gt;GET请求" style="rounded=1;whiteSpace=wrap;html=1;" parent="1" vertex="1">
          <mxGeometry x="710" y="690" width="120" height="60" as="geometry" />
        </mxCell>
        <mxCell id="R-MjW9YE-7VI5NUZe0La-65" value="" style="endArrow=classic;html=1;rounded=0;" parent="1" edge="1">
          <mxGeometry width="50" height="50" relative="1" as="geometry">
            <mxPoint x="590" y="720" as="sourcePoint" />
            <mxPoint x="560" y="340" as="targetPoint" />
            <Array as="points">
              <mxPoint x="590" y="340" />
            </Array>
          </mxGeometry>
        </mxCell>
        <mxCell id="R-MjW9YE-7VI5NUZe0La-67" value="" style="endArrow=none;html=1;rounded=0;entryX=0;entryY=0.5;entryDx=0;entryDy=0;" parent="1" target="R-MjW9YE-7VI5NUZe0La-64" edge="1">
          <mxGeometry width="50" height="50" relative="1" as="geometry">
            <mxPoint x="590" y="720" as="sourcePoint" />
            <mxPoint x="450" y="470" as="targetPoint" />
          </mxGeometry>
        </mxCell>
        <mxCell id="R-MjW9YE-7VI5NUZe0La-68" value="" style="endArrow=none;html=1;rounded=0;entryX=0;entryY=0.5;entryDx=0;entryDy=0;" parent="1" target="R-MjW9YE-7VI5NUZe0La-62" edge="1">
          <mxGeometry width="50" height="50" relative="1" as="geometry">
            <mxPoint x="590" y="610" as="sourcePoint" />
            <mxPoint x="450" y="470" as="targetPoint" />
          </mxGeometry>
        </mxCell>
        <mxCell id="R-MjW9YE-7VI5NUZe0La-69" value="" style="endArrow=none;html=1;rounded=0;entryX=0;entryY=0.5;entryDx=0;entryDy=0;" parent="1" target="R-MjW9YE-7VI5NUZe0La-61" edge="1">
          <mxGeometry width="50" height="50" relative="1" as="geometry">
            <mxPoint x="590" y="500" as="sourcePoint" />
            <mxPoint x="450" y="470" as="targetPoint" />
          </mxGeometry>
        </mxCell>
        <mxCell id="AOnuGD_5O9cSpYlKTCbC-2" value="&lt;span class=&quot;fontstyle01&quot;&gt;&lt;span style=&quot;font-size: 11.0pt ; color: #1f4e79&quot;&gt;接收直播会议&lt;br&gt;信息&lt;/span&gt;&lt;/span&gt;" style="edgeLabel;html=1;align=center;verticalAlign=middle;resizable=0;points=[];" vertex="1" connectable="0" parent="R-MjW9YE-7VI5NUZe0La-69">
          <mxGeometry x="0.2611" y="9" relative="1" as="geometry">
            <mxPoint x="-14" y="-11" as="offset" />
          </mxGeometry>
        </mxCell>
        <mxCell id="R-MjW9YE-7VI5NUZe0La-70" value="" style="endArrow=none;html=1;rounded=0;entryX=0;entryY=0.5;entryDx=0;entryDy=0;" parent="1" target="R-MjW9YE-7VI5NUZe0La-59" edge="1">
          <mxGeometry width="50" height="50" relative="1" as="geometry">
            <mxPoint x="590" y="390" as="sourcePoint" />
            <mxPoint x="450" y="470" as="targetPoint" />
          </mxGeometry>
        </mxCell>
        <mxCell id="R-MjW9YE-7VI5NUZe0La-71" value="&lt;span class=&quot;fontstyle01&quot;&gt;&lt;span lang=&quot;EN-US&quot; style=&quot;font-size: 11.0pt ; color: #1f4e79&quot;&gt;IQVIA&lt;/span&gt;&lt;/span&gt;&lt;span class=&quot;fontstyle01&quot;&gt;&lt;span style=&quot;font-size: 11.0pt ; color: #1f4e79&quot;&gt;调用此接口&lt;br&gt;返回医生身份&lt;br&gt;验证状态&lt;br&gt;&lt;/span&gt;&lt;/span&gt;" style="text;html=1;align=center;verticalAlign=middle;resizable=0;points=[];autosize=1;strokeColor=none;fillColor=none;" parent="1" vertex="1">
          <mxGeometry x="590" y="560" width="130" height="50" as="geometry" />
        </mxCell>
        <mxCell id="AOnuGD_5O9cSpYlKTCbC-1" value="&lt;span style=&quot;font-size: 10.5pt ; color: #1f4e79&quot;&gt;接收调研信息，&lt;br&gt;答题信息.&lt;/span&gt;" style="text;html=1;align=center;verticalAlign=middle;resizable=0;points=[];autosize=1;strokeColor=none;fillColor=none;" vertex="1" parent="1">
          <mxGeometry x="600" y="350" width="110" height="40" as="geometry" />
        </mxCell>
        <mxCell id="AOnuGD_5O9cSpYlKTCbC-3" value="对外接口" style="text;html=1;align=center;verticalAlign=middle;resizable=0;points=[];autosize=1;strokeColor=none;fillColor=none;" vertex="1" parent="1">
          <mxGeometry x="560" y="320" width="60" height="20" as="geometry" />
        </mxCell>
        <mxCell id="AOnuGD_5O9cSpYlKTCbC-6" value="&lt;span class=&quot;fontstyle01&quot;&gt;&lt;span style=&quot;font-size: 11.0pt ; color: #1f4e79&quot;&gt;获取用户身份&lt;br&gt;信息&lt;/span&gt;&lt;/span&gt;" style="text;html=1;align=center;verticalAlign=middle;resizable=0;points=[];autosize=1;strokeColor=none;fillColor=none;" vertex="1" parent="1">
          <mxGeometry x="600" y="680" width="100" height="40" as="geometry" />
        </mxCell>
      </root>
    </mxGraphModel>
  </diagram>
</mxfile>
